<svg xmlns="http://www.w3.org/2000/svg" xmlns:xlink="http://www.w3.org/1999/xlink" width="1366" zoomAndPan="magnify" viewBox="0 0 1024.5 576" height="768" preserveAspectRatio="xMidYMid meet" version="1.0"><defs><clipPath id="190998c353"><path d="M 356 309 L 469 309 L 469 458.414062 L 356 458.414062 Z M 356 309 " clip-rule="nonzero"/></clipPath><clipPath id="5cb8ab1231"><path d="M 556 309 L 668.929688 309 L 668.929688 458.414062 L 556 458.414062 Z M 556 309 " clip-rule="nonzero"/></clipPath></defs><g clip-path="url(#190998c353)"><path fill="#999999" d="M 463.917969 422.027344 L 464.074219 422.007812 L 462.945312 409.011719 L 412.382812 413.394531 C 397.664062 414.652344 384.222656 404.238281 381.773438 389.667969 L 369.117188 314.523438 C 368.515625 310.972656 365.144531 308.574219 361.597656 309.175781 C 358.050781 309.769531 355.65625 313.140625 356.257812 316.6875 L 368.914062 391.84375 C 372.039062 410.363281 387.359375 424.265625 405.445312 426.285156 L 401.929688 450.699219 C 401.421875 454.164062 403.640625 457.535156 407.070312 458.199219 C 407.503906 458.285156 407.9375 458.328125 408.359375 458.328125 C 411.546875 458.328125 414.335938 455.992188 414.8125 452.738281 L 418.664062 425.945312 L 450.910156 423.148438 L 455.175781 452.738281 C 455.640625 455.992188 458.425781 458.328125 461.613281 458.328125 C 462.046875 458.328125 462.46875 458.285156 462.902344 458.199219 C 466.332031 457.535156 468.550781 454.164062 468.054688 450.699219 L 463.917969 422.027344 " fill-opacity="1" fill-rule="nonzero"/></g><path fill="#999999" d="M 423.226562 275.296875 C 435.84375 275.296875 446.074219 265.058594 446.074219 252.433594 C 446.074219 239.808594 435.84375 229.574219 423.226562 229.574219 C 410.609375 229.574219 400.378906 239.808594 400.378906 252.433594 C 400.378906 265.058594 410.609375 275.296875 423.226562 275.296875 " fill-opacity="1" fill-rule="nonzero"/><path fill="#999999" d="M 489.035156 378.3125 C 487.398438 372.585938 482.351562 368.222656 476.070312 367.769531 L 428.578125 364.367188 C 427.574219 355.597656 427.195312 347.546875 427.269531 340.277344 L 460.738281 340.277344 C 464.613281 340.277344 467.757812 337.128906 467.757812 333.253906 C 467.757812 329.367188 464.613281 326.226562 460.738281 326.226562 L 435.875 323.1875 C 434.785156 318.589844 433.699219 313.984375 432.621094 309.386719 C 430.289062 299.5 428.535156 288.566406 417.113281 285.734375 C 394.667969 280.15625 387.5625 309.292969 385.859375 325.519531 C 383.71875 345.996094 387.328125 366.808594 392.648438 386.542969 C 394.128906 392.003906 397.695312 396.304688 402.289062 398.847656 C 402.308594 398.871094 402.351562 398.890625 402.382812 398.902344 C 402.625 399.050781 402.878906 399.164062 403.125 399.292969 C 406.144531 400.84375 409.585938 401.636719 413.214844 401.375 L 469.035156 397.371094 L 483.574219 438.667969 C 485.421875 443.855469 491.007812 446.832031 496.382812 445.3125 C 501.976562 443.726562 505.238281 437.894531 503.65625 432.296875 C 503.65625 432.296875 489.414062 379.664062 489.035156 378.3125 " fill-opacity="1" fill-rule="nonzero"/><g clip-path="url(#5cb8ab1231)"><path fill="#999999" d="M 663.03125 309.175781 C 659.472656 308.574219 656.113281 310.972656 655.511719 314.523438 L 642.851562 389.667969 C 640.402344 404.238281 626.964844 414.652344 612.246094 413.394531 L 561.683594 409.011719 L 560.5625 422.007812 L 560.703125 422.027344 L 556.574219 450.699219 C 556.078125 454.164062 558.292969 457.535156 561.714844 458.199219 C 562.148438 458.285156 562.589844 458.328125 563.011719 458.328125 C 566.203125 458.328125 568.988281 455.992188 569.453125 452.738281 L 573.71875 423.148438 L 605.953125 425.945312 L 609.816406 452.738281 C 610.292969 455.992188 613.078125 458.328125 616.269531 458.328125 C 616.691406 458.328125 617.125 458.285156 617.554688 458.199219 C 620.976562 457.535156 623.195312 454.164062 622.699219 450.699219 L 619.183594 426.285156 C 637.269531 424.265625 652.585938 410.363281 655.710938 391.84375 L 668.371094 316.6875 C 668.972656 313.140625 666.578125 309.769531 663.03125 309.175781 " fill-opacity="1" fill-rule="nonzero"/></g><path fill="#999999" d="M 578.554688 252.433594 C 578.554688 265.058594 588.785156 275.296875 601.402344 275.296875 C 614.019531 275.296875 624.25 265.058594 624.25 252.433594 C 624.25 239.808594 614.019531 229.574219 601.402344 229.574219 C 588.785156 229.574219 578.554688 239.808594 578.554688 252.433594 " fill-opacity="1" fill-rule="nonzero"/><path fill="#999999" d="M 621.496094 399.292969 C 621.746094 399.164062 622 399.050781 622.242188 398.902344 C 622.285156 398.890625 622.308594 398.871094 622.339844 398.847656 C 626.921875 396.304688 630.511719 392.003906 631.976562 386.542969 C 637.300781 366.808594 640.910156 345.996094 638.765625 325.519531 C 637.066406 309.292969 629.960938 280.15625 607.515625 285.734375 C 596.09375 288.566406 594.339844 299.5 592.007812 309.386719 C 590.929688 313.984375 589.839844 318.589844 588.753906 323.1875 L 563.890625 326.226562 C 560.003906 326.226562 556.867188 329.367188 556.867188 333.253906 C 556.867188 337.128906 560.003906 340.277344 563.890625 340.277344 L 597.359375 340.277344 C 597.433594 347.546875 597.050781 355.597656 596.050781 364.367188 L 548.558594 367.769531 C 542.277344 368.222656 537.230469 372.585938 535.59375 378.3125 C 535.214844 379.664062 520.972656 432.296875 520.972656 432.296875 C 519.386719 437.894531 522.640625 443.726562 528.246094 445.3125 C 533.621094 446.832031 539.207031 443.855469 541.054688 438.667969 L 555.589844 397.371094 L 611.410156 401.375 C 615.042969 401.636719 618.484375 400.84375 621.496094 399.292969 " fill-opacity="1" fill-rule="nonzero"/><path fill="#999999" d="M 445.652344 222.105469 C 446.285156 222.25 446.898438 222.441406 447.550781 222.632812 C 448.808594 222.90625 450.085938 223.117188 451.414062 223.222656 C 453.613281 223.488281 455.964844 223.382812 458.277344 223.085938 C 460.675781 222.769531 463.019531 222.167969 465.332031 221.375 C 467.367188 220.65625 469.34375 219.832031 471.253906 218.890625 C 479.976562 223.457031 490.238281 225.359375 500.679688 223.625 C 526.207031 219.390625 543.472656 195.257812 539.238281 169.714844 C 534.992188 144.125 510.699219 126.800781 485.0625 131.226562 C 459.863281 135.613281 442.683594 159.742188 446.832031 185.054688 C 448.183594 193.15625 451.585938 200.46875 456.355469 206.480469 C 455.703125 209.035156 454.699219 211.488281 453.230469 213.882812 C 452.300781 215.320312 451.183594 216.757812 449.820312 218.015625 C 448.53125 219.261719 447.023438 220.425781 445.449219 221.394531 C 444.921875 221.691406 445.292969 222 445.652344 222.105469 " fill-opacity="1" fill-rule="nonzero"/><path fill="#999999" d="M 526.820312 132.527344 C 528.109375 133.5 529.332031 134.503906 530.503906 135.558594 C 539.871094 127.75 552.910156 124.730469 565.347656 128.722656 C 577.710938 132.683594 586.917969 142.617188 589.957031 155.316406 C 591.53125 161.832031 591.265625 168.691406 589.21875 175.101562 C 586.230469 184.460938 579.757812 192.101562 570.996094 196.644531 L 570.332031 197.035156 L 569.960938 197.414062 C 568.714844 198.765625 568.019531 200.46875 567.988281 202.359375 C 568.027344 203.785156 568.410156 205.125 568.882812 206.425781 L 569.875 209.320312 C 567.964844 208.582031 566.308594 207.746094 564.902344 206.847656 L 564.175781 206.382812 C 563.710938 206.089844 563.394531 205.886719 563.085938 205.664062 C 561.925781 204.820312 560.839844 203.933594 559.78125 202.960938 C 559.140625 202.230469 558.105469 201.578125 556.859375 201.046875 L 555.632812 200.691406 L 555.105469 200.699219 C 551.410156 200.816406 547.726562 200.351562 544.136719 199.359375 C 543.089844 201.703125 541.886719 203.984375 540.503906 206.195312 C 540.515625 206.203125 540.546875 206.203125 540.558594 206.214844 C 545.066406 207.664062 549.730469 208.371094 554.410156 208.328125 C 554.417969 208.339844 554.417969 208.339844 554.417969 208.339844 C 555.855469 209.667969 557.195312 210.777344 558.644531 211.847656 C 559.171875 212.203125 559.644531 212.511719 560.109375 212.808594 L 560.753906 213.21875 C 563.214844 214.824219 566.210938 216.199219 569.675781 217.296875 L 570.011719 217.414062 C 573.59375 218.53125 576.117188 218.246094 577.753906 216.566406 C 578.324219 215.976562 579.640625 214.234375 578.683594 211.488281 L 576.074219 203.921875 C 575.882812 203.4375 575.757812 203.054688 575.683594 202.769531 C 585.628906 197.234375 593.007812 188.253906 596.460938 177.425781 C 598.933594 169.683594 599.25 161.433594 597.359375 153.539062 C 593.683594 138.230469 582.589844 126.261719 567.667969 121.476562 C 556.371094 117.863281 544.335938 118.867188 533.769531 124.328125 C 530.324219 126.09375 527.179688 128.28125 524.390625 130.792969 C 525.101562 131.269531 525.808594 131.765625 526.515625 132.292969 L 526.820312 132.527344 " fill-opacity="1" fill-rule="nonzero"/></svg>