<svg xmlns="http://www.w3.org/2000/svg" xmlns:xlink="http://www.w3.org/1999/xlink" width="1366" zoomAndPan="magnify" viewBox="0 0 1024.5 561.749983" height="768" preserveAspectRatio="xMidYMid meet" version="1.0"><defs><g/><clipPath id="11016b1dd5"><path d="M 190.539062 2.3125 L 831.429688 2.3125 L 831.429688 560.773438 L 190.539062 560.773438 Z M 190.539062 2.3125 " clip-rule="nonzero"/></clipPath></defs><g clip-path="url(#11016b1dd5)"><path fill="#ffffff" d="M 659.886719 21.65625 L 808.945312 281.542969 L 659.886719 541.425781 L 361.773438 541.425781 L 212.585938 281.542969 L 361.773438 21.65625 L 659.886719 21.65625 M 671.039062 2.3125 L 350.621094 2.3125 L 190.414062 281.542969 L 350.621094 560.773438 L 671.039062 560.773438 L 831.246094 281.542969 Z M 671.039062 2.3125 " fill-opacity="1" fill-rule="nonzero"/></g><g fill="#ffffff" fill-opacity="1"><g transform="translate(401.805584, 405.355377)"><g><path d="M 226.234375 0 L 177.203125 0 L 159.46875 -54.34375 L 69.171875 -54.34375 L 51.4375 0 L 3.546875 0 L 84.984375 -235.75 L 144.796875 -235.75 Z M 112.0625 -186.5625 L 81.75 -93.515625 L 146.578125 -93.515625 L 116.09375 -186.5625 Z M 112.0625 -186.5625 "/></g></g></g></svg>