<svg xmlns="http://www.w3.org/2000/svg" xmlns:xlink="http://www.w3.org/1999/xlink" width="1366" zoomAndPan="magnify" viewBox="0 0 1024.5 576" height="768" preserveAspectRatio="xMidYMid meet" version="1.0"><defs><g/><clipPath id="8bf49cdd8a"><path d="M 357.722656 154.277344 L 664.902344 154.277344 L 664.902344 423.058594 L 357.722656 423.058594 Z M 357.722656 154.277344 " clip-rule="nonzero"/></clipPath></defs><g clip-path="url(#8bf49cdd8a)"><path fill="#ffffff" d="M 585.699219 163.589844 L 658.101562 288.667969 L 585.699219 413.746094 L 440.898438 413.746094 L 368.433594 288.667969 L 440.898438 163.589844 L 585.699219 163.589844 M 591.117188 154.277344 L 435.480469 154.277344 L 357.664062 288.667969 L 435.480469 423.058594 L 591.117188 423.058594 L 668.933594 288.667969 Z M 591.117188 154.277344 " fill-opacity="1" fill-rule="nonzero"/></g><g fill="#ffffff" fill-opacity="1"><g transform="translate(459.200767, 347.869511)"><g><path d="M 108.671875 0 L 85.125 0 L 76.609375 -26.109375 L 33.234375 -26.109375 L 24.703125 0 L 1.703125 0 L 40.8125 -113.234375 L 69.546875 -113.234375 Z M 53.828125 -89.609375 L 39.265625 -44.921875 L 70.40625 -44.921875 L 55.765625 -89.609375 Z M 53.828125 -89.609375 "/></g></g></g></svg>