<svg xmlns="http://www.w3.org/2000/svg" xmlns:xlink="http://www.w3.org/1999/xlink" width="1366" zoomAndPan="magnify" viewBox="0 0 1024.5 576" height="768" preserveAspectRatio="xMidYMid meet" version="1.0"><path fill="#ffffff" d="M 590.351562 290.449219 C 590.351562 291.296875 590.308594 292.144531 590.226562 292.988281 C 590.144531 293.832031 590.019531 294.671875 589.851562 295.503906 C 589.6875 296.335938 589.480469 297.15625 589.234375 297.96875 C 588.988281 298.78125 588.703125 299.578125 588.378906 300.363281 C 588.054688 301.148438 587.691406 301.914062 587.289062 302.664062 C 586.890625 303.410156 586.453125 304.136719 585.984375 304.84375 C 585.511719 305.550781 585.007812 306.230469 584.46875 306.886719 C 583.929688 307.542969 583.359375 308.171875 582.761719 308.769531 C 582.160156 309.371094 581.53125 309.941406 580.875 310.476562 C 580.222656 311.015625 579.539062 311.519531 578.835938 311.992188 C 578.128906 312.464844 577.402344 312.898438 576.652344 313.300781 C 575.90625 313.699219 575.136719 314.0625 574.355469 314.386719 C 573.570312 314.710938 572.773438 314.996094 571.960938 315.242188 C 571.148438 315.492188 570.324219 315.695312 569.492188 315.863281 C 568.660156 316.027344 567.824219 316.152344 566.976562 316.234375 C 566.132812 316.316406 565.285156 316.359375 564.4375 316.359375 C 563.589844 316.359375 562.742188 316.316406 561.898438 316.234375 C 561.054688 316.152344 560.214844 316.027344 559.382812 315.863281 C 558.550781 315.695312 557.726562 315.492188 556.917969 315.242188 C 556.105469 314.996094 555.304688 314.710938 554.523438 314.386719 C 553.738281 314.0625 552.972656 313.699219 552.222656 313.300781 C 551.476562 312.898438 550.746094 312.464844 550.042969 311.992188 C 549.335938 311.519531 548.65625 311.015625 548 310.476562 C 547.34375 309.941406 546.714844 309.371094 546.117188 308.769531 C 545.515625 308.171875 544.945312 307.542969 544.40625 306.886719 C 543.871094 306.230469 543.363281 305.550781 542.894531 304.84375 C 542.421875 304.136719 541.984375 303.410156 541.585938 302.664062 C 541.183594 301.914062 540.824219 301.148438 540.5 300.363281 C 540.171875 299.578125 539.886719 298.78125 539.640625 297.96875 C 539.394531 297.15625 539.1875 296.335938 539.023438 295.503906 C 538.859375 294.671875 538.734375 293.832031 538.652344 292.988281 C 538.566406 292.144531 538.527344 291.296875 538.527344 290.449219 C 538.527344 289.597656 538.566406 288.753906 538.652344 287.90625 C 538.734375 287.0625 538.859375 286.222656 539.023438 285.390625 C 539.1875 284.558594 539.394531 283.738281 539.640625 282.925781 C 539.886719 282.113281 540.171875 281.316406 540.5 280.53125 C 540.824219 279.746094 541.183594 278.980469 541.585938 278.230469 C 541.984375 277.484375 542.421875 276.757812 542.894531 276.050781 C 543.363281 275.34375 543.871094 274.664062 544.40625 274.007812 C 544.945312 273.351562 545.515625 272.722656 546.117188 272.125 C 546.714844 271.523438 547.34375 270.957031 548 270.417969 C 548.65625 269.878906 549.335938 269.375 550.042969 268.902344 C 550.746094 268.429688 551.476562 267.996094 552.222656 267.59375 C 552.972656 267.195312 553.738281 266.832031 554.523438 266.507812 C 555.304688 266.183594 556.105469 265.898438 556.917969 265.652344 C 557.726562 265.40625 558.550781 265.199219 559.382812 265.03125 C 560.214844 264.867188 561.054688 264.742188 561.898438 264.660156 C 562.742188 264.578125 563.589844 264.535156 564.4375 264.535156 C 565.285156 264.535156 566.132812 264.578125 566.976562 264.660156 C 567.824219 264.742188 568.660156 264.867188 569.492188 265.03125 C 570.324219 265.199219 571.148438 265.40625 571.960938 265.652344 C 572.773438 265.898438 573.570312 266.183594 574.355469 266.507812 C 575.136719 266.832031 575.90625 267.195312 576.652344 267.59375 C 577.402344 267.996094 578.128906 268.429688 578.835938 268.902344 C 579.539062 269.375 580.222656 269.878906 580.875 270.417969 C 581.53125 270.957031 582.160156 271.523438 582.761719 272.125 C 583.359375 272.722656 583.929688 273.351562 584.46875 274.007812 C 585.007812 274.664062 585.511719 275.34375 585.984375 276.050781 C 586.453125 276.757812 586.890625 277.484375 587.289062 278.230469 C 587.691406 278.980469 588.054688 279.746094 588.378906 280.53125 C 588.703125 281.316406 588.988281 282.113281 589.234375 282.925781 C 589.480469 283.738281 589.6875 284.558594 589.851562 285.390625 C 590.019531 286.222656 590.144531 287.0625 590.226562 287.90625 C 590.308594 288.753906 590.351562 289.597656 590.351562 290.449219 Z M 590.351562 290.449219 " fill-opacity="1" fill-rule="nonzero"/><path fill="#ffffff" d="M 538.527344 238.621094 C 538.527344 239.472656 538.484375 240.316406 538.402344 241.164062 C 538.316406 242.007812 538.195312 242.84375 538.027344 243.679688 C 537.863281 244.511719 537.65625 245.332031 537.410156 246.144531 C 537.164062 246.957031 536.878906 247.753906 536.554688 248.539062 C 536.230469 249.324219 535.867188 250.089844 535.464844 250.835938 C 535.066406 251.585938 534.628906 252.3125 534.160156 253.019531 C 533.6875 253.722656 533.183594 254.40625 532.644531 255.0625 C 532.105469 255.71875 531.535156 256.34375 530.9375 256.945312 C 530.335938 257.546875 529.707031 258.113281 529.050781 258.652344 C 528.394531 259.191406 527.714844 259.695312 527.007812 260.167969 C 526.304688 260.640625 525.578125 261.074219 524.828125 261.476562 C 524.078125 261.875 523.3125 262.238281 522.53125 262.5625 C 521.746094 262.886719 520.949219 263.171875 520.136719 263.417969 C 519.324219 263.664062 518.5 263.871094 517.667969 264.035156 C 516.835938 264.203125 515.996094 264.328125 515.152344 264.410156 C 514.308594 264.492188 513.460938 264.535156 512.613281 264.535156 C 511.765625 264.535156 510.917969 264.492188 510.074219 264.410156 C 509.230469 264.328125 508.390625 264.203125 507.558594 264.035156 C 506.726562 263.871094 505.902344 263.664062 505.089844 263.417969 C 504.277344 263.171875 503.480469 262.886719 502.695312 262.5625 C 501.914062 262.238281 501.148438 261.875 500.398438 261.476562 C 499.648438 261.074219 498.921875 260.640625 498.21875 260.167969 C 497.511719 259.695312 496.832031 259.191406 496.175781 258.652344 C 495.519531 258.113281 494.890625 257.546875 494.289062 256.945312 C 493.691406 256.34375 493.121094 255.71875 492.582031 255.0625 C 492.042969 254.40625 491.539062 253.722656 491.066406 253.019531 C 490.597656 252.3125 490.160156 251.585938 489.761719 250.835938 C 489.359375 250.089844 489 249.324219 488.671875 248.539062 C 488.347656 247.753906 488.0625 246.957031 487.816406 246.144531 C 487.570312 245.332031 487.363281 244.511719 487.199219 243.679688 C 487.035156 242.84375 486.910156 242.007812 486.824219 241.164062 C 486.742188 240.316406 486.699219 239.472656 486.699219 238.621094 C 486.699219 237.773438 486.742188 236.925781 486.824219 236.082031 C 486.910156 235.238281 487.035156 234.398438 487.199219 233.566406 C 487.363281 232.734375 487.570312 231.914062 487.816406 231.101562 C 488.0625 230.289062 488.347656 229.492188 488.671875 228.707031 C 489 227.921875 489.359375 227.15625 489.761719 226.40625 C 490.160156 225.660156 490.597656 224.933594 491.066406 224.226562 C 491.539062 223.519531 492.042969 222.839844 492.582031 222.183594 C 493.121094 221.527344 493.691406 220.898438 494.289062 220.300781 C 494.890625 219.699219 495.519531 219.128906 496.175781 218.59375 C 496.832031 218.054688 497.511719 217.546875 498.21875 217.078125 C 498.921875 216.605469 499.648438 216.167969 500.398438 215.769531 C 501.148438 215.371094 501.914062 215.007812 502.695312 214.683594 C 503.480469 214.359375 504.277344 214.070312 505.089844 213.824219 C 505.902344 213.578125 506.726562 213.375 507.558594 213.207031 C 508.390625 213.042969 509.230469 212.917969 510.074219 212.835938 C 510.917969 212.75 511.765625 212.710938 512.613281 212.710938 C 513.460938 212.710938 514.308594 212.75 515.152344 212.835938 C 515.996094 212.917969 516.835938 213.042969 517.667969 213.207031 C 518.5 213.375 519.324219 213.578125 520.136719 213.824219 C 520.949219 214.070312 521.746094 214.359375 522.53125 214.683594 C 523.3125 215.007812 524.078125 215.371094 524.828125 215.769531 C 525.578125 216.167969 526.304688 216.605469 527.007812 217.078125 C 527.714844 217.546875 528.394531 218.054688 529.050781 218.59375 C 529.707031 219.128906 530.335938 219.699219 530.9375 220.300781 C 531.535156 220.898438 532.105469 221.527344 532.644531 222.183594 C 533.183594 222.839844 533.6875 223.519531 534.160156 224.226562 C 534.628906 224.933594 535.066406 225.660156 535.464844 226.40625 C 535.867188 227.15625 536.230469 227.921875 536.554688 228.707031 C 536.878906 229.492188 537.164062 230.289062 537.410156 231.101562 C 537.65625 231.914062 537.863281 232.734375 538.027344 233.566406 C 538.195312 234.398438 538.316406 235.238281 538.402344 236.082031 C 538.484375 236.925781 538.527344 237.773438 538.527344 238.621094 Z M 538.527344 238.621094 " fill-opacity="1" fill-rule="nonzero"/><path fill="#ffffff" d="M 538.527344 342.273438 C 538.527344 343.121094 538.484375 343.96875 538.402344 344.8125 C 538.316406 345.65625 538.195312 346.496094 538.027344 347.328125 C 537.863281 348.160156 537.65625 348.980469 537.410156 349.792969 C 537.164062 350.605469 536.878906 351.40625 536.554688 352.1875 C 536.230469 352.972656 535.867188 353.738281 535.464844 354.488281 C 535.066406 355.234375 534.628906 355.960938 534.160156 356.667969 C 533.6875 357.375 533.183594 358.054688 532.644531 358.710938 C 532.105469 359.367188 531.535156 359.996094 530.9375 360.59375 C 530.335938 361.195312 529.707031 361.765625 529.050781 362.300781 C 528.394531 362.839844 527.714844 363.347656 527.007812 363.816406 C 526.304688 364.289062 525.578125 364.726562 524.828125 365.125 C 524.078125 365.523438 523.3125 365.886719 522.53125 366.210938 C 521.746094 366.535156 520.949219 366.824219 520.136719 367.070312 C 519.324219 367.316406 518.5 367.519531 517.667969 367.6875 C 516.835938 367.851562 515.996094 367.976562 515.152344 368.058594 C 514.308594 368.144531 513.460938 368.183594 512.613281 368.183594 C 511.765625 368.183594 510.917969 368.144531 510.074219 368.058594 C 509.230469 367.976562 508.390625 367.851562 507.558594 367.6875 C 506.726562 367.519531 505.902344 367.316406 505.089844 367.070312 C 504.277344 366.824219 503.480469 366.535156 502.695312 366.210938 C 501.914062 365.886719 501.148438 365.523438 500.398438 365.125 C 499.648438 364.726562 498.921875 364.289062 498.21875 363.816406 C 497.511719 363.347656 496.832031 362.839844 496.175781 362.300781 C 495.519531 361.765625 494.890625 361.195312 494.289062 360.59375 C 493.691406 359.996094 493.121094 359.367188 492.582031 358.710938 C 492.042969 358.054688 491.539062 357.375 491.066406 356.667969 C 490.597656 355.960938 490.160156 355.234375 489.761719 354.488281 C 489.359375 353.738281 489 352.972656 488.671875 352.1875 C 488.347656 351.40625 488.0625 350.605469 487.816406 349.792969 C 487.570312 348.980469 487.363281 348.160156 487.199219 347.328125 C 487.035156 346.496094 486.910156 345.65625 486.824219 344.8125 C 486.742188 343.96875 486.699219 343.121094 486.699219 342.273438 C 486.699219 341.421875 486.742188 340.578125 486.824219 339.730469 C 486.910156 338.886719 487.035156 338.050781 487.199219 337.21875 C 487.363281 336.382812 487.570312 335.5625 487.816406 334.75 C 488.0625 333.9375 488.347656 333.140625 488.671875 332.355469 C 489 331.570312 489.359375 330.804688 489.761719 330.058594 C 490.160156 329.308594 490.597656 328.582031 491.066406 327.875 C 491.539062 327.171875 492.042969 326.488281 492.582031 325.832031 C 493.121094 325.175781 493.691406 324.550781 494.289062 323.949219 C 494.890625 323.347656 495.519531 322.78125 496.175781 322.242188 C 496.832031 321.703125 497.511719 321.199219 498.21875 320.726562 C 498.921875 320.253906 499.648438 319.820312 500.398438 319.417969 C 501.148438 319.019531 501.914062 318.65625 502.695312 318.332031 C 503.480469 318.007812 504.277344 317.722656 505.089844 317.476562 C 505.902344 317.230469 506.726562 317.023438 507.558594 316.859375 C 508.390625 316.691406 509.230469 316.566406 510.074219 316.484375 C 510.917969 316.402344 511.765625 316.359375 512.613281 316.359375 C 513.460938 316.359375 514.308594 316.402344 515.152344 316.484375 C 515.996094 316.566406 516.835938 316.691406 517.667969 316.859375 C 518.5 317.023438 519.324219 317.230469 520.136719 317.476562 C 520.949219 317.722656 521.746094 318.007812 522.53125 318.332031 C 523.3125 318.65625 524.078125 319.019531 524.828125 319.417969 C 525.578125 319.820312 526.304688 320.253906 527.007812 320.726562 C 527.714844 321.199219 528.394531 321.703125 529.050781 322.242188 C 529.707031 322.78125 530.335938 323.347656 530.9375 323.949219 C 531.535156 324.550781 532.105469 325.175781 532.644531 325.832031 C 533.183594 326.488281 533.6875 327.171875 534.160156 327.875 C 534.628906 328.582031 535.066406 329.308594 535.464844 330.058594 C 535.867188 330.804688 536.230469 331.570312 536.554688 332.355469 C 536.878906 333.140625 537.164062 333.9375 537.410156 334.75 C 537.65625 335.5625 537.863281 336.382812 538.027344 337.21875 C 538.195312 338.050781 538.316406 338.886719 538.402344 339.730469 C 538.484375 340.578125 538.527344 341.421875 538.527344 342.273438 Z M 538.527344 342.273438 " fill-opacity="1" fill-rule="nonzero"/><path fill="#ffffff" d="M 512.613281 342.273438 C 511.761719 342.273438 510.921875 342.1875 510.085938 342.023438 C 509.25 341.855469 508.441406 341.613281 507.65625 341.285156 C 506.871094 340.960938 506.121094 340.5625 505.414062 340.089844 C 504.707031 339.617188 504.054688 339.078125 503.453125 338.476562 C 502.851562 337.875 502.3125 337.222656 501.839844 336.515625 C 501.367188 335.808594 500.96875 335.058594 500.644531 334.273438 C 500.316406 333.488281 500.070312 332.679688 499.90625 331.84375 C 499.738281 331.007812 499.65625 330.167969 499.65625 329.316406 L 499.65625 251.578125 C 499.65625 250.726562 499.738281 249.886719 499.90625 249.050781 C 500.070312 248.214844 500.316406 247.40625 500.644531 246.621094 C 500.96875 245.835938 501.367188 245.089844 501.839844 244.378906 C 502.3125 243.671875 502.851562 243.019531 503.453125 242.417969 C 504.054688 241.816406 504.707031 241.277344 505.414062 240.804688 C 506.121094 240.332031 506.871094 239.933594 507.65625 239.609375 C 508.441406 239.285156 509.25 239.039062 510.085938 238.871094 C 510.921875 238.707031 511.761719 238.621094 512.613281 238.621094 C 513.464844 238.621094 514.308594 238.707031 515.140625 238.871094 C 515.976562 239.039062 516.785156 239.285156 517.570312 239.609375 C 518.359375 239.933594 519.105469 240.332031 519.8125 240.804688 C 520.519531 241.277344 521.171875 241.816406 521.773438 242.417969 C 522.375 243.019531 522.914062 243.671875 523.386719 244.378906 C 523.859375 245.089844 524.257812 245.835938 524.582031 246.621094 C 524.910156 247.40625 525.15625 248.214844 525.320312 249.050781 C 525.488281 249.886719 525.570312 250.726562 525.570312 251.578125 L 525.570312 329.316406 C 525.570312 330.167969 525.488281 331.007812 525.320312 331.84375 C 525.15625 332.679688 524.910156 333.488281 524.582031 334.273438 C 524.257812 335.058594 523.859375 335.808594 523.386719 336.515625 C 522.914062 337.222656 522.375 337.875 521.773438 338.476562 C 521.171875 339.078125 520.519531 339.617188 519.8125 340.089844 C 519.105469 340.5625 518.359375 340.960938 517.570312 341.285156 C 516.785156 341.613281 515.976562 341.855469 515.140625 342.023438 C 514.308594 342.1875 513.464844 342.273438 512.613281 342.273438 Z M 512.613281 342.273438 " fill-opacity="1" fill-rule="nonzero"/><path fill="#ffffff" d="M 551.480469 290.449219 C 549.761719 290.449219 548.109375 290.125 546.523438 289.464844 C 544.933594 288.808594 543.535156 287.871094 542.320312 286.652344 L 516.410156 260.738281 C 515.824219 260.132812 515.304688 259.476562 514.847656 258.769531 C 514.390625 258.066406 514.007812 257.320312 513.695312 256.539062 C 513.382812 255.757812 513.148438 254.953125 512.996094 254.128906 C 512.839844 253.300781 512.765625 252.464844 512.773438 251.625 C 512.78125 250.785156 512.867188 249.953125 513.039062 249.128906 C 513.207031 248.304688 513.453125 247.503906 513.78125 246.726562 C 514.105469 245.953125 514.503906 245.214844 514.972656 244.515625 C 515.441406 243.816406 515.972656 243.171875 516.566406 242.578125 C 517.160156 241.980469 517.808594 241.449219 518.507812 240.980469 C 519.207031 240.511719 519.941406 240.113281 520.71875 239.789062 C 521.496094 239.464844 522.292969 239.214844 523.117188 239.046875 C 523.941406 238.878906 524.773438 238.789062 525.617188 238.78125 C 526.457031 238.773438 527.292969 238.847656 528.117188 239.003906 C 528.945312 239.160156 529.75 239.390625 530.53125 239.703125 C 531.3125 240.015625 532.054688 240.398438 532.761719 240.855469 C 533.46875 241.3125 534.125 241.835938 534.730469 242.417969 L 560.640625 268.332031 C 561.546875 269.238281 562.300781 270.253906 562.90625 271.386719 C 563.511719 272.515625 563.9375 273.707031 564.1875 274.964844 C 564.4375 276.222656 564.5 277.488281 564.375 278.761719 C 564.246094 280.035156 563.941406 281.265625 563.449219 282.449219 C 562.960938 283.632812 562.308594 284.71875 561.496094 285.710938 C 560.683594 286.699219 559.742188 287.550781 558.679688 288.261719 C 557.613281 288.976562 556.46875 289.515625 555.242188 289.890625 C 554.015625 290.261719 552.761719 290.445312 551.480469 290.449219 Z M 551.480469 290.449219 " fill-opacity="1" fill-rule="nonzero"/><path fill="#ffffff" d="M 499.65625 238.621094 C 497.9375 238.625 496.285156 238.296875 494.699219 237.640625 C 493.109375 236.980469 491.710938 236.042969 490.496094 234.828125 L 465.878906 210.210938 C 465.296875 209.605469 464.777344 208.949219 464.320312 208.242188 C 463.863281 207.535156 463.476562 206.792969 463.164062 206.011719 C 462.855469 205.230469 462.621094 204.425781 462.464844 203.597656 C 462.308594 202.769531 462.238281 201.9375 462.242188 201.097656 C 462.25 200.253906 462.339844 199.421875 462.507812 198.597656 C 462.679688 197.773438 462.925781 196.972656 463.25 196.199219 C 463.578125 195.421875 463.972656 194.6875 464.441406 193.988281 C 464.910156 193.289062 465.441406 192.640625 466.039062 192.046875 C 466.632812 191.453125 467.28125 190.921875 467.976562 190.453125 C 468.675781 189.984375 469.414062 189.585938 470.191406 189.261719 C 470.964844 188.933594 471.765625 188.6875 472.589844 188.519531 C 473.414062 188.347656 474.246094 188.261719 475.085938 188.253906 C 475.929688 188.246094 476.761719 188.320312 477.589844 188.476562 C 478.414062 188.628906 479.21875 188.863281 480 189.175781 C 480.78125 189.488281 481.527344 189.871094 482.234375 190.328125 C 482.941406 190.785156 483.59375 191.304688 484.199219 191.890625 L 508.816406 216.507812 C 509.722656 217.414062 510.476562 218.429688 511.082031 219.558594 C 511.683594 220.691406 512.113281 221.882812 512.363281 223.140625 C 512.613281 224.394531 512.675781 225.660156 512.546875 226.9375 C 512.421875 228.210938 512.113281 229.441406 511.625 230.625 C 511.132812 231.808594 510.484375 232.894531 509.671875 233.886719 C 508.859375 234.875 507.917969 235.726562 506.855469 236.4375 C 505.789062 237.148438 504.644531 237.691406 503.417969 238.0625 C 502.191406 238.4375 500.9375 238.621094 499.65625 238.621094 Z M 499.65625 238.621094 " fill-opacity="1" fill-rule="nonzero"/><path fill="#ffffff" d="M 512.613281 419.828125 C 509.972656 419.855469 507.359375 419.628906 504.761719 419.144531 C 502.167969 418.660156 499.644531 417.929688 497.191406 416.953125 C 494.742188 415.976562 492.40625 414.773438 490.191406 413.339844 C 487.972656 411.90625 485.917969 410.273438 484.019531 408.441406 L 394.621094 319.042969 C 393.71875 318.085938 392.863281 317.089844 392.050781 316.054688 C 391.242188 315.019531 390.484375 313.945312 389.777344 312.839844 C 389.070312 311.730469 388.417969 310.59375 387.816406 309.421875 C 387.21875 308.253906 386.675781 307.058594 386.1875 305.835938 C 385.703125 304.613281 385.277344 303.371094 384.90625 302.109375 C 384.539062 300.847656 384.230469 299.574219 383.984375 298.28125 C 383.734375 296.992188 383.550781 295.691406 383.425781 294.382812 C 383.300781 293.074219 383.238281 291.761719 383.238281 290.449219 C 383.238281 289.132812 383.300781 287.820312 383.425781 286.511719 C 383.550781 285.203125 383.734375 283.902344 383.984375 282.613281 C 384.230469 281.320312 384.539062 280.046875 384.90625 278.785156 C 385.277344 277.523438 385.703125 276.28125 386.1875 275.058594 C 386.675781 273.835938 387.21875 272.640625 387.816406 271.472656 C 388.417969 270.300781 389.070312 269.164062 389.777344 268.054688 C 390.484375 266.949219 391.242188 265.875 392.050781 264.839844 C 392.863281 263.804688 393.71875 262.808594 394.621094 261.851562 L 484.019531 172.457031 C 484.972656 171.550781 485.96875 170.695312 487.003906 169.886719 C 488.042969 169.074219 489.113281 168.316406 490.222656 167.609375 C 491.328125 166.902344 492.46875 166.25 493.640625 165.648438 C 494.808594 165.046875 496.003906 164.503906 497.226562 164.019531 C 498.449219 163.53125 499.6875 163.105469 500.953125 162.738281 C 502.214844 162.367188 503.488281 162.058594 504.78125 161.8125 C 506.074219 161.566406 507.371094 161.378906 508.679688 161.253906 C 509.988281 161.128906 511.300781 161.066406 512.617188 161.066406 C 513.929688 161.066406 515.242188 161.128906 516.550781 161.253906 C 517.859375 161.378906 519.160156 161.566406 520.453125 161.8125 C 521.742188 162.058594 523.019531 162.367188 524.28125 162.738281 C 525.542969 163.105469 526.785156 163.53125 528.007812 164.019531 C 529.230469 164.503906 530.425781 165.046875 531.59375 165.648438 C 532.765625 166.25 533.902344 166.902344 535.011719 167.609375 C 536.121094 168.316406 537.191406 169.074219 538.226562 169.886719 C 539.265625 170.695312 540.257812 171.550781 541.214844 172.457031 L 630.613281 261.851562 C 631.515625 262.808594 632.371094 263.804688 633.179688 264.839844 C 633.988281 265.875 634.746094 266.949219 635.457031 268.054688 C 636.164062 269.164062 636.816406 270.300781 637.414062 271.472656 C 638.015625 272.640625 638.558594 273.835938 639.042969 275.058594 C 639.53125 276.28125 639.957031 277.523438 640.324219 278.785156 C 640.695312 280.046875 641.003906 281.320312 641.25 282.613281 C 641.496094 283.902344 641.683594 285.203125 641.808594 286.511719 C 641.933594 287.820312 641.992188 289.132812 641.992188 290.449219 C 641.992188 291.761719 641.933594 293.074219 641.808594 294.382812 C 641.683594 295.691406 641.496094 296.992188 641.25 298.28125 C 641.003906 299.574219 640.695312 300.847656 640.324219 302.109375 C 639.957031 303.371094 639.53125 304.613281 639.042969 305.835938 C 638.558594 307.058594 638.015625 308.253906 637.414062 309.421875 C 636.816406 310.59375 636.164062 311.730469 635.457031 312.839844 C 634.746094 313.945312 633.988281 315.019531 633.179688 316.054688 C 632.371094 317.089844 631.515625 318.085938 630.613281 319.042969 L 541.214844 408.441406 C 539.316406 410.273438 537.257812 411.910156 535.042969 413.339844 C 532.824219 414.773438 530.488281 415.980469 528.039062 416.957031 C 525.585938 417.933594 523.0625 418.660156 520.464844 419.144531 C 517.871094 419.628906 515.253906 419.855469 512.613281 419.828125 Z M 512.613281 186.980469 C 510.71875 186.917969 508.882812 187.214844 507.109375 187.871094 C 505.332031 188.527344 503.742188 189.496094 502.34375 190.773438 L 412.949219 280.171875 C 412.339844 280.882812 411.800781 281.640625 411.328125 282.449219 C 410.855469 283.253906 410.457031 284.09375 410.136719 284.972656 C 409.8125 285.847656 409.566406 286.746094 409.402344 287.667969 C 409.238281 288.585938 409.15625 289.511719 409.15625 290.449219 C 409.15625 291.382812 409.238281 292.308594 409.402344 293.226562 C 409.566406 294.148438 409.8125 295.046875 410.136719 295.921875 C 410.457031 296.800781 410.855469 297.640625 411.328125 298.445312 C 411.800781 299.253906 412.339844 300.011719 412.949219 300.722656 L 502.34375 390.121094 C 503.066406 390.699219 503.835938 391.214844 504.644531 391.667969 C 505.453125 392.117188 506.296875 392.496094 507.171875 392.804688 C 508.046875 393.113281 508.9375 393.34375 509.851562 393.5 C 510.765625 393.65625 511.6875 393.734375 512.613281 393.734375 C 513.539062 393.734375 514.460938 393.65625 515.375 393.5 C 516.289062 393.34375 517.183594 393.113281 518.054688 392.804688 C 518.929688 392.496094 519.773438 392.117188 520.582031 391.667969 C 521.390625 391.214844 522.160156 390.699219 522.882812 390.121094 L 612.277344 300.722656 C 612.886719 300.011719 613.425781 299.253906 613.898438 298.445312 C 614.371094 297.640625 614.769531 296.800781 615.089844 295.921875 C 615.414062 295.046875 615.660156 294.148438 615.824219 293.226562 C 615.988281 292.308594 616.070312 291.382812 616.070312 290.449219 C 616.070312 289.511719 615.988281 288.585938 615.824219 287.667969 C 615.660156 286.746094 615.414062 285.847656 615.089844 284.972656 C 614.769531 284.09375 614.371094 283.253906 613.898438 282.449219 C 613.425781 281.640625 612.886719 280.882812 612.277344 280.171875 L 522.882812 190.773438 C 521.484375 189.496094 519.894531 188.53125 518.117188 187.875 C 516.339844 187.21875 514.507812 186.917969 512.613281 186.980469 Z M 512.613281 186.980469 " fill-opacity="1" fill-rule="nonzero"/></svg>