<svg xmlns="http://www.w3.org/2000/svg" xmlns:xlink="http://www.w3.org/1999/xlink" width="1366" zoomAndPan="magnify" viewBox="0 0 1024.5 576" height="768" preserveAspectRatio="xMidYMid meet" version="1.0"><defs><clipPath id="7d3b0eb764"><path d="M 366.066406 141.957031 L 658.566406 141.957031 L 658.566406 434.457031 L 366.066406 434.457031 Z M 366.066406 141.957031 " clip-rule="nonzero"/></clipPath></defs><g clip-path="url(#7d3b0eb764)"><path fill="#ffffff" d="M 572.855469 141.953125 L 451.773438 141.953125 C 404.632812 141.953125 366.0625 180.523438 366.0625 227.664062 L 366.0625 348.746094 C 366.0625 395.886719 404.632812 434.457031 451.773438 434.457031 L 572.855469 434.457031 C 620 434.457031 658.566406 395.886719 658.566406 348.746094 L 658.566406 227.664062 C 658.566406 180.523438 620 141.953125 572.855469 141.953125 Z M 572.855469 164.617188 C 581.3125 164.617188 589.53125 166.289062 597.273438 169.578125 C 601.003906 171.164062 604.605469 173.125 607.984375 175.410156 C 611.335938 177.683594 614.492188 180.289062 617.363281 183.160156 C 620.234375 186.027344 622.839844 189.1875 625.109375 192.539062 C 627.394531 195.914062 629.359375 199.515625 630.941406 203.25 C 634.230469 210.992188 635.902344 219.207031 635.902344 227.664062 L 635.902344 348.746094 C 635.902344 357.203125 634.230469 365.421875 630.941406 373.164062 C 629.359375 376.894531 627.394531 380.5 625.109375 383.875 C 622.839844 387.226562 620.234375 390.382812 617.363281 393.253906 C 614.492188 396.125 611.335938 398.730469 607.984375 401 C 604.605469 403.285156 601.003906 405.25 597.273438 406.832031 C 589.53125 410.125 581.3125 411.792969 572.855469 411.792969 L 451.773438 411.792969 C 443.316406 411.792969 435.101562 410.125 427.355469 406.832031 C 423.625 405.25 420.023438 403.285156 416.644531 401 C 413.292969 398.730469 410.140625 396.125 407.269531 393.253906 C 404.398438 390.382812 401.789062 387.226562 399.519531 383.875 C 397.234375 380.5 395.273438 376.894531 393.6875 373.164062 C 390.398438 365.421875 388.730469 357.203125 388.730469 348.746094 L 388.730469 227.664062 C 388.730469 219.207031 390.398438 210.992188 393.6875 203.25 C 395.273438 199.515625 397.234375 195.914062 399.519531 192.539062 C 401.789062 189.1875 404.398438 186.027344 407.269531 183.160156 C 410.140625 180.289062 413.292969 177.683594 416.644531 175.410156 C 420.023438 173.125 423.625 171.164062 427.355469 169.578125 C 435.101562 166.289062 443.316406 164.617188 451.773438 164.617188 L 572.855469 164.617188 " fill-opacity="1" fill-rule="nonzero"/></g><path fill="#ffffff" d="M 512.316406 216.921875 C 473.109375 216.921875 441.03125 249 441.03125 288.207031 C 441.03125 327.410156 473.109375 359.488281 512.316406 359.488281 C 551.519531 359.488281 583.597656 327.410156 583.597656 288.207031 C 583.597656 249 551.519531 216.921875 512.316406 216.921875 Z M 512.316406 239.589844 C 518.835938 239.589844 525.164062 240.871094 531.128906 243.410156 C 536.921875 245.871094 542.136719 249.398438 546.632812 253.890625 C 551.125 258.382812 554.652344 263.597656 557.113281 269.390625 C 559.648438 275.355469 560.933594 281.6875 560.933594 288.207031 C 560.933594 294.726562 559.648438 301.054688 557.113281 307.023438 C 554.652344 312.8125 551.125 318.03125 546.632812 322.523438 C 542.136719 327.015625 536.921875 330.542969 531.128906 333.003906 C 525.164062 335.539062 518.835938 336.824219 512.316406 336.824219 C 505.796875 336.824219 499.464844 335.539062 493.5 333.003906 C 487.707031 330.542969 482.492188 327.015625 478 322.523438 C 473.503906 318.03125 469.976562 312.8125 467.515625 307.023438 C 464.984375 301.054688 463.695312 294.726562 463.695312 288.207031 C 463.695312 281.6875 464.984375 275.355469 467.515625 269.390625 C 469.976562 263.597656 473.503906 258.382812 478 253.890625 C 482.492188 249.398438 487.707031 245.871094 493.5 243.410156 C 499.464844 240.871094 505.796875 239.589844 512.316406 239.589844 " fill-opacity="1" fill-rule="nonzero"/><path fill="#ffffff" d="M 602.640625 209.457031 C 602.640625 218.222656 595.535156 225.332031 586.769531 225.332031 C 578.007812 225.332031 570.902344 218.222656 570.902344 209.457031 C 570.902344 200.695312 578.007812 193.589844 586.769531 193.589844 C 595.535156 193.589844 602.640625 200.695312 602.640625 209.457031 " fill-opacity="1" fill-rule="nonzero"/></svg>