<svg xmlns="http://www.w3.org/2000/svg" xmlns:xlink="http://www.w3.org/1999/xlink" width="1366" zoomAndPan="magnify" viewBox="0 0 1024.5 576" height="768" preserveAspectRatio="xMidYMid meet" version="1.0"><defs><clipPath id="145d27b653"><path d="M 378.765625 154.65625 L 645.765625 154.65625 L 645.765625 421.65625 L 378.765625 421.65625 Z M 378.765625 154.65625 " clip-rule="nonzero"/></clipPath></defs><g clip-path="url(#145d27b653)"><path fill="#ffffff" d="M 601.265625 421.65625 L 423.265625 421.65625 C 421.808594 421.652344 420.355469 421.582031 418.902344 421.4375 C 417.453125 421.292969 416.015625 421.078125 414.585938 420.792969 C 413.15625 420.507812 411.746094 420.152344 410.351562 419.726562 C 408.957031 419.304688 407.585938 418.8125 406.242188 418.253906 C 404.894531 417.695312 403.582031 417.074219 402.296875 416.386719 C 401.011719 415.699219 399.761719 414.949219 398.550781 414.140625 C 397.339844 413.332031 396.171875 412.464844 395.046875 411.539062 C 393.917969 410.617188 392.839844 409.636719 391.8125 408.609375 C 390.78125 407.578125 389.804688 406.5 388.878906 405.375 C 387.953125 404.246094 387.085938 403.078125 386.277344 401.867188 C 385.46875 400.65625 384.71875 399.40625 384.03125 398.121094 C 383.34375 396.839844 382.722656 395.523438 382.164062 394.175781 C 381.605469 392.832031 381.113281 391.460938 380.691406 390.066406 C 380.265625 388.671875 379.910156 387.261719 379.625 385.832031 C 379.339844 384.402344 379.125 382.964844 378.980469 381.515625 C 378.839844 380.066406 378.765625 378.613281 378.765625 377.15625 L 378.765625 199.15625 C 378.765625 197.699219 378.839844 196.246094 378.980469 194.792969 C 379.125 193.34375 379.339844 191.90625 379.625 190.476562 C 379.910156 189.046875 380.265625 187.636719 380.691406 186.242188 C 381.113281 184.847656 381.605469 183.476562 382.164062 182.132812 C 382.722656 180.785156 383.34375 179.472656 384.03125 178.1875 C 384.71875 176.902344 385.46875 175.652344 386.277344 174.441406 C 387.085938 173.230469 387.953125 172.0625 388.878906 170.9375 C 389.804688 169.808594 390.78125 168.730469 391.8125 167.703125 C 392.839844 166.671875 393.917969 165.695312 395.046875 164.769531 C 396.171875 163.84375 397.339844 162.976562 398.550781 162.167969 C 399.761719 161.359375 401.011719 160.609375 402.296875 159.921875 C 403.582031 159.234375 404.894531 158.613281 406.242188 158.054688 C 407.585938 157.496094 408.957031 157.003906 410.351562 156.582031 C 411.746094 156.15625 413.15625 155.800781 414.585938 155.515625 C 416.015625 155.230469 417.453125 155.015625 418.902344 154.871094 C 420.355469 154.730469 421.808594 154.65625 423.265625 154.65625 L 601.265625 154.65625 C 602.722656 154.65625 604.175781 154.730469 605.625 154.871094 C 607.074219 155.015625 608.515625 155.230469 609.941406 155.515625 C 611.371094 155.800781 612.78125 156.15625 614.175781 156.582031 C 615.570312 157.003906 616.941406 157.496094 618.285156 158.054688 C 619.632812 158.613281 620.949219 159.234375 622.234375 159.921875 C 623.515625 160.609375 624.765625 161.359375 625.976562 162.167969 C 627.1875 162.976562 628.355469 163.84375 629.484375 164.769531 C 630.609375 165.695312 631.6875 166.671875 632.71875 167.703125 C 633.746094 168.730469 634.726562 169.808594 635.648438 170.9375 C 636.574219 172.0625 637.441406 173.230469 638.25 174.441406 C 639.0625 175.652344 639.808594 176.902344 640.496094 178.1875 C 641.183594 179.472656 641.804688 180.785156 642.363281 182.132812 C 642.921875 183.476562 643.414062 184.847656 643.839844 186.242188 C 644.261719 187.636719 644.617188 189.046875 644.902344 190.476562 C 645.1875 191.90625 645.402344 193.34375 645.546875 194.792969 C 645.691406 196.246094 645.761719 197.699219 645.765625 199.15625 L 645.765625 377.15625 C 645.761719 378.613281 645.691406 380.066406 645.546875 381.515625 C 645.402344 382.964844 645.1875 384.402344 644.902344 385.832031 C 644.617188 387.261719 644.261719 388.671875 643.839844 390.066406 C 643.414062 391.460938 642.921875 392.832031 642.363281 394.175781 C 641.804688 395.523438 641.183594 396.839844 640.496094 398.121094 C 639.808594 399.40625 639.0625 400.65625 638.25 401.867188 C 637.441406 403.078125 636.574219 404.246094 635.648438 405.375 C 634.726562 406.5 633.746094 407.578125 632.71875 408.609375 C 631.6875 409.636719 630.609375 410.617188 629.484375 411.539062 C 628.355469 412.464844 627.1875 413.332031 625.976562 414.140625 C 624.765625 414.949219 623.515625 415.699219 622.234375 416.386719 C 620.949219 417.074219 619.632812 417.695312 618.285156 418.253906 C 616.941406 418.8125 615.570312 419.304688 614.175781 419.726562 C 612.78125 420.152344 611.371094 420.507812 609.941406 420.792969 C 608.515625 421.078125 607.074219 421.292969 605.625 421.4375 C 604.175781 421.582031 602.722656 421.652344 601.265625 421.65625 Z M 423.265625 184.320312 C 422.289062 184.320312 421.324219 184.417969 420.371094 184.605469 C 419.414062 184.796875 418.488281 185.078125 417.585938 185.449219 C 416.6875 185.824219 415.832031 186.28125 415.023438 186.820312 C 414.214844 187.363281 413.464844 187.976562 412.773438 188.664062 C 412.085938 189.355469 411.472656 190.105469 410.929688 190.914062 C 410.390625 191.722656 409.933594 192.578125 409.558594 193.476562 C 409.1875 194.378906 408.90625 195.304688 408.714844 196.261719 C 408.527344 197.214844 408.429688 198.179688 408.429688 199.15625 L 408.429688 377.15625 C 408.429688 378.128906 408.527344 379.09375 408.714844 380.046875 C 408.90625 381.003906 409.1875 381.929688 409.558594 382.832031 C 409.933594 383.730469 410.390625 384.585938 410.929688 385.394531 C 411.472656 386.207031 412.085938 386.953125 412.773438 387.644531 C 413.464844 388.332031 414.214844 388.945312 415.023438 389.488281 C 415.832031 390.027344 416.6875 390.484375 417.585938 390.859375 C 418.488281 391.230469 419.414062 391.511719 420.371094 391.703125 C 421.324219 391.894531 422.289062 391.988281 423.265625 391.988281 L 601.265625 391.988281 C 602.238281 391.988281 603.203125 391.894531 604.15625 391.703125 C 605.113281 391.511719 606.039062 391.230469 606.941406 390.859375 C 607.839844 390.484375 608.695312 390.027344 609.503906 389.488281 C 610.316406 388.945312 611.0625 388.332031 611.753906 387.644531 C 612.441406 386.953125 613.054688 386.207031 613.597656 385.394531 C 614.136719 384.585938 614.59375 383.730469 614.96875 382.832031 C 615.339844 381.929688 615.621094 381.003906 615.8125 380.046875 C 616.003906 379.09375 616.097656 378.128906 616.097656 377.15625 L 616.097656 199.15625 C 616.097656 198.179688 616.003906 197.214844 615.8125 196.261719 C 615.621094 195.304688 615.339844 194.378906 614.96875 193.476562 C 614.59375 192.578125 614.136719 191.722656 613.597656 190.914062 C 613.054688 190.105469 612.441406 189.355469 611.753906 188.664062 C 611.0625 187.976562 610.316406 187.363281 609.503906 186.820312 C 608.695312 186.28125 607.839844 185.824219 606.941406 185.449219 C 606.039062 185.078125 605.113281 184.796875 604.15625 184.605469 C 603.203125 184.417969 602.238281 184.320312 601.265625 184.320312 Z M 423.265625 184.320312 " fill-opacity="1" fill-rule="nonzero"/></g><path fill="#ffffff" d="M 452.929688 362.320312 C 451.957031 362.320312 450.992188 362.226562 450.035156 362.035156 C 449.082031 361.847656 448.152344 361.566406 447.253906 361.191406 C 446.355469 360.820312 445.5 360.363281 444.691406 359.820312 C 443.878906 359.28125 443.128906 358.664062 442.441406 357.976562 C 441.753906 357.289062 441.136719 356.539062 440.597656 355.730469 C 440.054688 354.917969 439.597656 354.0625 439.226562 353.164062 C 438.855469 352.265625 438.574219 351.335938 438.382812 350.382812 C 438.191406 349.425781 438.097656 348.460938 438.097656 347.488281 L 438.097656 273.320312 C 438.097656 272.347656 438.191406 271.382812 438.382812 270.425781 C 438.574219 269.472656 438.855469 268.542969 439.226562 267.644531 C 439.597656 266.746094 440.054688 265.890625 440.597656 265.082031 C 441.136719 264.269531 441.753906 263.519531 442.441406 262.832031 C 443.128906 262.144531 443.878906 261.527344 444.691406 260.988281 C 445.5 260.445312 446.355469 259.988281 447.253906 259.617188 C 448.152344 259.246094 449.082031 258.964844 450.035156 258.773438 C 450.992188 258.582031 451.957031 258.488281 452.929688 258.488281 C 453.90625 258.488281 454.871094 258.582031 455.824219 258.773438 C 456.78125 258.964844 457.707031 259.246094 458.605469 259.617188 C 459.507812 259.988281 460.363281 260.445312 461.171875 260.988281 C 461.980469 261.527344 462.730469 262.144531 463.417969 262.832031 C 464.109375 263.519531 464.722656 264.269531 465.265625 265.082031 C 465.804688 265.890625 466.261719 266.746094 466.636719 267.644531 C 467.007812 268.542969 467.289062 269.472656 467.480469 270.425781 C 467.667969 271.382812 467.765625 272.347656 467.765625 273.320312 L 467.765625 347.488281 C 467.765625 348.460938 467.667969 349.425781 467.480469 350.382812 C 467.289062 351.335938 467.007812 352.265625 466.636719 353.164062 C 466.261719 354.0625 465.804688 354.917969 465.265625 355.730469 C 464.722656 356.539062 464.109375 357.289062 463.417969 357.976562 C 462.730469 358.664062 461.980469 359.28125 461.171875 359.820312 C 460.363281 360.363281 459.507812 360.820312 458.605469 361.191406 C 457.707031 361.566406 456.78125 361.847656 455.824219 362.035156 C 454.871094 362.226562 453.90625 362.320312 452.929688 362.320312 Z M 452.929688 362.320312 " fill-opacity="1" fill-rule="nonzero"/><path fill="#ffffff" d="M 452.929688 243.804688 C 451.957031 243.804688 450.988281 243.710938 450.03125 243.523438 C 449.074219 243.335938 448.144531 243.058594 447.242188 242.6875 C 446.339844 242.316406 445.484375 241.863281 444.671875 241.324219 C 443.859375 240.78125 443.105469 240.167969 442.414062 239.480469 C 441.722656 238.792969 441.105469 238.046875 440.558594 237.238281 C 440.015625 236.429688 439.554688 235.574219 439.175781 234.675781 C 438.800781 233.773438 438.515625 232.847656 438.320312 231.890625 C 438.125 230.933594 438.027344 229.96875 438.023438 228.992188 C 438.019531 228.019531 438.109375 227.050781 438.296875 226.09375 C 438.484375 225.136719 438.761719 224.207031 439.128906 223.304688 C 439.5 222.402344 439.953125 221.542969 440.492188 220.730469 C 441.027344 219.917969 441.640625 219.164062 442.328125 218.46875 C 443.011719 217.777344 443.761719 217.15625 444.570312 216.609375 C 445.375 216.066406 446.230469 215.601562 447.128906 215.226562 C 448.027344 214.847656 448.957031 214.558594 449.910156 214.363281 C 450.867188 214.167969 451.832031 214.066406 452.808594 214.0625 C 453.78125 214.058594 454.75 214.144531 455.707031 214.332031 C 456.664062 214.515625 457.59375 214.792969 458.5 215.160156 C 459.402344 215.527344 460.261719 215.980469 461.074219 216.515625 C 461.890625 217.050781 462.644531 217.664062 463.339844 218.347656 C 464.03125 219.03125 464.652344 219.777344 465.203125 220.585938 C 465.75 221.394531 466.210938 222.246094 466.59375 223.144531 C 466.972656 224.042969 467.261719 224.96875 467.457031 225.925781 C 467.65625 226.878906 467.757812 227.847656 467.765625 228.820312 L 467.765625 228.96875 C 467.765625 229.945312 467.667969 230.910156 467.480469 231.863281 C 467.289062 232.820312 467.007812 233.746094 466.636719 234.644531 C 466.261719 235.546875 465.804688 236.402344 465.265625 237.210938 C 464.722656 238.019531 464.109375 238.769531 463.417969 239.457031 C 462.730469 240.148438 461.980469 240.761719 461.171875 241.304688 C 460.363281 241.84375 459.507812 242.300781 458.605469 242.675781 C 457.707031 243.046875 456.78125 243.328125 455.824219 243.519531 C 454.871094 243.707031 453.90625 243.804688 452.929688 243.804688 Z M 452.929688 243.804688 " fill-opacity="1" fill-rule="nonzero"/><path fill="#ffffff" d="M 512.265625 362.320312 C 511.289062 362.320312 510.324219 362.226562 509.371094 362.035156 C 508.414062 361.847656 507.488281 361.566406 506.585938 361.191406 C 505.6875 360.820312 504.832031 360.363281 504.023438 359.820312 C 503.214844 359.28125 502.464844 358.664062 501.773438 357.976562 C 501.085938 357.289062 500.472656 356.539062 499.929688 355.730469 C 499.390625 354.917969 498.933594 354.0625 498.558594 353.164062 C 498.1875 352.265625 497.90625 351.335938 497.714844 350.382812 C 497.527344 349.425781 497.429688 348.460938 497.429688 347.488281 L 497.429688 273.320312 C 497.429688 272.347656 497.527344 271.382812 497.714844 270.425781 C 497.90625 269.472656 498.1875 268.542969 498.558594 267.644531 C 498.933594 266.746094 499.390625 265.890625 499.929688 265.082031 C 500.472656 264.269531 501.085938 263.519531 501.773438 262.832031 C 502.464844 262.144531 503.214844 261.527344 504.023438 260.988281 C 504.832031 260.445312 505.6875 259.988281 506.585938 259.617188 C 507.488281 259.246094 508.414062 258.964844 509.371094 258.773438 C 510.324219 258.582031 511.289062 258.488281 512.265625 258.488281 C 513.238281 258.488281 514.203125 258.582031 515.15625 258.773438 C 516.113281 258.964844 517.039062 259.246094 517.941406 259.617188 C 518.839844 259.988281 519.695312 260.445312 520.503906 260.988281 C 521.316406 261.527344 522.0625 262.144531 522.753906 262.832031 C 523.441406 263.519531 524.054688 264.269531 524.597656 265.082031 C 525.136719 265.890625 525.59375 266.746094 525.96875 267.644531 C 526.339844 268.542969 526.621094 269.472656 526.8125 270.425781 C 527.003906 271.382812 527.097656 272.347656 527.097656 273.320312 L 527.097656 347.488281 C 527.097656 348.460938 527.003906 349.425781 526.8125 350.382812 C 526.621094 351.335938 526.339844 352.265625 525.96875 353.164062 C 525.59375 354.0625 525.136719 354.917969 524.597656 355.730469 C 524.054688 356.539062 523.441406 357.289062 522.753906 357.976562 C 522.0625 358.664062 521.316406 359.28125 520.503906 359.820312 C 519.695312 360.363281 518.839844 360.820312 517.941406 361.191406 C 517.039062 361.566406 516.113281 361.847656 515.15625 362.035156 C 514.203125 362.226562 513.238281 362.320312 512.265625 362.320312 Z M 512.265625 362.320312 " fill-opacity="1" fill-rule="nonzero"/><path fill="#ffffff" d="M 571.597656 362.320312 C 570.625 362.320312 569.660156 362.226562 568.703125 362.035156 C 567.75 361.847656 566.820312 361.566406 565.921875 361.191406 C 565.019531 360.820312 564.167969 360.363281 563.355469 359.820312 C 562.546875 359.28125 561.796875 358.664062 561.109375 357.976562 C 560.421875 357.289062 559.804688 356.539062 559.265625 355.730469 C 558.722656 354.917969 558.265625 354.0625 557.894531 353.164062 C 557.519531 352.265625 557.238281 351.335938 557.050781 350.382812 C 556.859375 349.425781 556.765625 348.460938 556.765625 347.488281 L 556.765625 302.988281 C 556.765625 302.015625 556.667969 301.050781 556.480469 300.09375 C 556.289062 299.140625 556.007812 298.210938 555.636719 297.3125 C 555.261719 296.410156 554.804688 295.558594 554.265625 294.746094 C 553.722656 293.9375 553.109375 293.1875 552.417969 292.5 C 551.730469 291.808594 550.980469 291.195312 550.171875 290.65625 C 549.363281 290.113281 548.507812 289.65625 547.605469 289.285156 C 546.707031 288.910156 545.78125 288.628906 544.824219 288.441406 C 543.871094 288.25 542.90625 288.15625 541.929688 288.15625 C 540.957031 288.15625 539.992188 288.25 539.035156 288.441406 C 538.082031 288.628906 537.152344 288.910156 536.253906 289.285156 C 535.355469 289.65625 534.5 290.113281 533.691406 290.65625 C 532.878906 291.195312 532.128906 291.808594 531.441406 292.5 C 530.753906 293.1875 530.136719 293.9375 529.597656 294.746094 C 529.054688 295.558594 528.597656 296.410156 528.226562 297.3125 C 527.855469 298.210938 527.574219 299.140625 527.382812 300.09375 C 527.191406 301.050781 527.097656 302.015625 527.097656 302.988281 C 527.097656 303.960938 527.003906 304.925781 526.8125 305.882812 C 526.621094 306.835938 526.339844 307.765625 525.96875 308.664062 C 525.59375 309.5625 525.136719 310.417969 524.597656 311.230469 C 524.054688 312.039062 523.441406 312.789062 522.753906 313.476562 C 522.0625 314.164062 521.316406 314.78125 520.503906 315.320312 C 519.695312 315.863281 518.839844 316.320312 517.941406 316.691406 C 517.039062 317.066406 516.113281 317.347656 515.15625 317.535156 C 514.203125 317.726562 513.238281 317.820312 512.265625 317.820312 C 511.289062 317.820312 510.324219 317.726562 509.371094 317.535156 C 508.414062 317.347656 507.488281 317.066406 506.585938 316.691406 C 505.6875 316.320312 504.832031 315.863281 504.023438 315.320312 C 503.214844 314.78125 502.464844 314.164062 501.773438 313.476562 C 501.085938 312.789062 500.472656 312.039062 499.929688 311.230469 C 499.390625 310.417969 498.933594 309.5625 498.558594 308.664062 C 498.1875 307.765625 497.90625 306.835938 497.714844 305.882812 C 497.527344 304.925781 497.429688 303.960938 497.429688 302.988281 C 497.429688 301.53125 497.503906 300.078125 497.644531 298.625 C 497.789062 297.175781 498 295.734375 498.285156 294.304688 C 498.570312 292.878906 498.925781 291.464844 499.347656 290.070312 C 499.769531 288.675781 500.261719 287.304688 500.816406 285.957031 C 501.375 284.613281 502 283.296875 502.683594 282.011719 C 503.371094 280.726562 504.121094 279.476562 504.929688 278.265625 C 505.738281 277.054688 506.605469 275.882812 507.53125 274.757812 C 508.457031 273.632812 509.433594 272.550781 510.464844 271.523438 C 511.496094 270.492188 512.574219 269.511719 513.699219 268.589844 C 514.828125 267.664062 515.996094 266.796875 517.207031 265.988281 C 518.417969 265.179688 519.667969 264.429688 520.953125 263.742188 C 522.238281 263.054688 523.554688 262.433594 524.902344 261.875 C 526.246094 261.316406 527.617188 260.828125 529.011719 260.402344 C 530.40625 259.980469 531.820312 259.628906 533.25 259.34375 C 534.679688 259.058594 536.117188 258.84375 537.570312 258.703125 C 539.019531 258.558594 540.472656 258.488281 541.929688 258.488281 C 543.386719 258.488281 544.84375 258.558594 546.292969 258.703125 C 547.742188 258.84375 549.183594 259.058594 550.613281 259.34375 C 552.042969 259.628906 553.453125 259.980469 554.847656 260.402344 C 556.242188 260.828125 557.613281 261.316406 558.960938 261.875 C 560.304688 262.433594 561.621094 263.054688 562.90625 263.742188 C 564.191406 264.429688 565.441406 265.179688 566.652344 265.988281 C 567.867188 266.796875 569.035156 267.664062 570.160156 268.589844 C 571.289062 269.511719 572.367188 270.492188 573.398438 271.523438 C 574.425781 272.550781 575.40625 273.632812 576.328125 274.757812 C 577.253906 275.882812 578.121094 277.054688 578.929688 278.265625 C 579.742188 279.476562 580.488281 280.726562 581.175781 282.011719 C 581.863281 283.296875 582.484375 284.613281 583.042969 285.957031 C 583.601562 287.304688 584.089844 288.675781 584.515625 290.070312 C 584.9375 291.464844 585.292969 292.878906 585.574219 294.304688 C 585.859375 295.734375 586.074219 297.175781 586.214844 298.625 C 586.359375 300.078125 586.429688 301.53125 586.429688 302.988281 L 586.429688 347.488281 C 586.429688 348.460938 586.335938 349.425781 586.144531 350.382812 C 585.957031 351.335938 585.675781 352.265625 585.300781 353.164062 C 584.929688 354.0625 584.472656 354.917969 583.929688 355.730469 C 583.390625 356.539062 582.773438 357.289062 582.085938 357.976562 C 581.398438 358.664062 580.648438 359.28125 579.839844 359.820312 C 579.027344 360.363281 578.171875 360.820312 577.273438 361.191406 C 576.375 361.566406 575.445312 361.847656 574.492188 362.035156 C 573.535156 362.226562 572.570312 362.320312 571.597656 362.320312 Z M 571.597656 362.320312 " fill-opacity="1" fill-rule="nonzero"/></svg>