<svg xmlns="http://www.w3.org/2000/svg" xmlns:xlink="http://www.w3.org/1999/xlink" width="1366" zoomAndPan="magnify" viewBox="0 0 1024.5 576" height="768" preserveAspectRatio="xMidYMid meet" version="1.0"><path fill="#ffffff" d="M 618.996094 221.722656 C 611.132812 225.214844 602.679688 227.566406 593.808594 228.625 C 602.867188 223.199219 609.8125 214.605469 613.089844 204.363281 C 604.621094 209.386719 595.234375 213.039062 585.242188 215.007812 C 577.242188 206.484375 565.84375 201.15625 553.230469 201.15625 C 529.015625 201.15625 509.378906 220.796875 509.378906 245.011719 C 509.378906 248.449219 509.769531 251.800781 510.507812 255.003906 C 474.066406 253.179688 441.753906 235.714844 420.121094 209.183594 C 416.351562 215.65625 414.1875 223.191406 414.1875 231.234375 C 414.1875 246.445312 421.925781 259.867188 433.691406 267.730469 C 426.503906 267.5 419.746094 265.53125 413.832031 262.246094 L 413.832031 262.796875 C 413.832031 284.046875 428.945312 301.773438 449.011719 305.796875 C 445.332031 306.804688 441.457031 307.339844 437.449219 307.339844 C 434.628906 307.339844 431.875 307.0625 429.203125 306.554688 C 434.789062 323.976562 450.980469 336.65625 470.171875 337.015625 C 455.164062 348.777344 436.257812 355.789062 415.710938 355.789062 C 412.175781 355.789062 408.683594 355.582031 405.246094 355.171875 C 424.652344 367.617188 447.703125 374.875 472.46875 374.875 C 553.132812 374.875 597.238281 308.050781 597.238281 250.097656 C 597.238281 248.199219 597.195312 246.304688 597.113281 244.425781 C 605.679688 238.234375 613.117188 230.511719 618.996094 221.722656 Z M 618.996094 221.722656 " fill-opacity="1" fill-rule="nonzero"/></svg>