<svg xmlns="http://www.w3.org/2000/svg" xmlns:xlink="http://www.w3.org/1999/xlink" width="1366" zoomAndPan="magnify" viewBox="0 0 1024.5 576" height="768" preserveAspectRatio="xMidYMid meet" version="1.0"><defs><clipPath id="c0d5b747c0"><path d="M 431 126.976562 L 594 126.976562 L 594 289 L 431 289 Z M 431 126.976562 " clip-rule="nonzero"/></clipPath><clipPath id="e92422b573"><path d="M 370.863281 307 L 654.019531 307 L 654.019531 449.476562 L 370.863281 449.476562 Z M 370.863281 307 " clip-rule="nonzero"/></clipPath></defs><g clip-path="url(#c0d5b747c0)"><path fill="#999999" d="M 512.441406 126.976562 C 467.84375 126.976562 431.605469 163.253906 431.605469 207.832031 C 431.605469 252.410156 467.84375 288.683594 512.441406 288.683594 C 557.011719 288.683594 593.28125 252.410156 593.28125 207.832031 C 593.28125 163.253906 557.011719 126.976562 512.441406 126.976562 " fill-opacity="1" fill-rule="nonzero"/></g><g clip-path="url(#e92422b573)"><path fill="#999999" d="M 512.441406 307.867188 C 434.382812 307.867188 370.863281 371.402344 370.863281 449.476562 L 654.019531 449.476562 C 654.019531 371.402344 590.503906 307.867188 512.441406 307.867188 " fill-opacity="1" fill-rule="nonzero"/></g></svg>