<svg xmlns="http://www.w3.org/2000/svg" xmlns:xlink="http://www.w3.org/1999/xlink" width="1366" zoomAndPan="magnify" viewBox="0 0 1024.5 576" height="768" preserveAspectRatio="xMidYMid meet" version="1.0"><defs><clipPath id="c8d2f79413"><path d="M 338.578125 122.566406 L 685.828125 122.566406 L 685.828125 454.066406 L 338.578125 454.066406 Z M 338.578125 122.566406 " clip-rule="nonzero"/></clipPath></defs><path fill="#000000" d="M 345.628906 129.542969 L 678.777344 129.542969 L 678.777344 153.273438 L 345.628906 153.273438 Z M 345.628906 129.542969 " fill-opacity="1" fill-rule="nonzero"/><path fill="#000000" d="M 345.628906 153.273438 L 678.777344 153.273438 L 678.777344 447.085938 L 345.628906 447.085938 Z M 345.628906 153.273438 " fill-opacity="1" fill-rule="nonzero"/><g clip-path="url(#c8d2f79413)"><path fill="#eff0f2" d="M 338.660156 122.566406 L 338.660156 454.066406 L 685.746094 454.066406 L 685.746094 122.566406 Z M 678.777344 447.085938 L 345.628906 447.085938 L 345.628906 159.554688 L 678.777344 159.554688 Z M 345.628906 152.574219 L 345.628906 129.542969 L 678.777344 129.542969 L 678.777344 152.574219 Z M 345.628906 152.574219 " fill-opacity="1" fill-rule="nonzero"/></g><path fill="#eff0f2" d="M 359.914062 136.523438 C 362.773438 136.523438 365.144531 138.894531 365.144531 141.757812 C 365.144531 144.621094 362.773438 146.992188 359.914062 146.992188 C 357.058594 146.992188 354.6875 144.621094 354.6875 141.757812 C 354.6875 138.894531 357.058594 136.523438 359.914062 136.523438 Z M 379.082031 136.453125 C 381.941406 136.453125 384.308594 138.757812 384.308594 141.546875 C 384.308594 144.339844 381.941406 146.644531 379.082031 146.644531 C 376.226562 146.644531 373.855469 144.339844 373.855469 141.546875 C 373.855469 138.757812 376.226562 136.453125 379.082031 136.453125 Z M 379.082031 136.453125 " fill-opacity="1" fill-rule="nonzero"/></svg>