<svg xmlns="http://www.w3.org/2000/svg" xmlns:xlink="http://www.w3.org/1999/xlink" width="1366" zoomAndPan="magnify" viewBox="0 0 1024.5 576" height="768" preserveAspectRatio="xMidYMid meet" version="1.0"><defs><clipPath id="76548a4a77"><path d="M 366 175.714844 L 659.800781 175.714844 L 659.800781 400.714844 L 366 400.714844 Z M 366 175.714844 " clip-rule="nonzero"/></clipPath></defs><g clip-path="url(#76548a4a77)"><path fill="#999999" d="M 602.816406 262.722656 C 581.644531 262.722656 564.414062 245.507812 564.414062 224.34375 C 564.414062 203.179688 581.644531 185.957031 602.816406 185.957031 C 623.988281 185.957031 641.21875 203.179688 641.21875 224.34375 C 641.21875 245.507812 623.988281 262.722656 602.816406 262.722656 Z M 455.972656 337.222656 C 444.746094 337.222656 435.648438 332.222656 435.648438 326.058594 C 435.648438 319.894531 444.746094 314.902344 455.972656 314.902344 C 467.199219 314.902344 476.300781 319.894531 476.300781 326.058594 C 476.300781 332.222656 467.199219 337.222656 455.972656 337.222656 Z M 630.40625 264.339844 C 643.105469 255.5625 651.445312 240.90625 651.445312 224.34375 C 651.445312 197.542969 629.628906 175.734375 602.816406 175.734375 C 576.003906 175.734375 554.1875 197.542969 554.1875 224.34375 C 554.1875 240.683594 562.304688 255.15625 574.710938 263.972656 C 562.132812 266.949219 551.191406 275.113281 544.8125 286.726562 L 526.96875 319.25 L 520.378906 298.746094 C 516.105469 286.320312 504.402344 277.972656 491.261719 277.972656 L 381.242188 277.972656 C 376.304688 277.972656 371.824219 280.273438 368.957031 284.292969 C 366.085938 288.308594 365.359375 293.292969 366.960938 297.949219 L 390.582031 370.242188 L 514.457031 370.242188 C 516.34375 370.242188 517.867188 371.765625 517.867188 373.648438 C 517.867188 375.53125 516.34375 377.058594 514.457031 377.058594 L 390.273438 377.058594 C 390.164062 377.640625 390.101562 378.246094 390.101562 378.867188 L 390.101562 386.492188 C 390.101562 392.011719 394.59375 396.503906 400.121094 396.503906 L 591.164062 396.503906 C 596.683594 396.503906 601.179688 392.011719 601.179688 386.492188 L 601.179688 378.867188 C 601.179688 374.226562 598 370.328125 593.710938 369.195312 L 596.660156 368.304688 C 602.871094 366.441406 608.011719 362.296875 611.144531 356.644531 L 635.917969 311.96875 C 637.289062 309.496094 636.398438 306.386719 633.925781 305.015625 C 631.453125 303.648438 628.34375 304.539062 626.972656 307.007812 L 602.195312 351.6875 C 600.363281 354.996094 597.355469 357.421875 593.714844 358.511719 L 563.949219 367.488281 C 563.074219 367.753906 562.324219 368.234375 561.734375 368.851562 L 542.921875 368.851562 L 539.132812 357.078125 L 547.933594 354.625 C 547.957031 354.617188 547.980469 354.609375 548.003906 354.601562 L 587.011719 343.722656 C 588.339844 343.355469 589.460938 342.464844 590.125 341.257812 L 607.300781 309.925781 C 608.660156 307.449219 607.75 304.347656 605.273438 302.988281 C 602.800781 301.636719 599.6875 302.535156 598.332031 305.015625 L 582.1875 334.453125 L 557.207031 341.425781 L 575.011719 309.988281 C 576.402344 307.535156 575.539062 304.414062 573.082031 303.019531 C 570.628906 301.640625 567.503906 302.496094 566.109375 304.953125 L 543.242188 345.320312 L 536 347.339844 L 531.101562 332.09375 C 531.640625 331.675781 532.113281 331.144531 532.464844 330.507812 L 553.785156 291.644531 C 560.109375 280.117188 572.21875 272.949219 585.378906 272.949219 L 619.136719 272.949219 C 635.730469 272.949219 649.234375 286.445312 649.234375 303.035156 L 649.234375 395.652344 C 649.234375 398.472656 651.523438 400.761719 654.347656 400.761719 C 657.171875 400.761719 659.460938 398.472656 659.460938 395.652344 L 659.460938 303.035156 C 659.460938 284.714844 647.171875 269.226562 630.40625 264.339844 " fill-opacity="1" fill-rule="nonzero"/></g></svg>