<svg xmlns="http://www.w3.org/2000/svg" xmlns:xlink="http://www.w3.org/1999/xlink" width="1366" zoomAndPan="magnify" viewBox="0 0 1024.5 561.749983" height="768" preserveAspectRatio="xMidYMid meet" version="1.0"><defs><clipPath id="120f6bdbee"><path d="M 147 0.0117188 L 880 0.0117188 L 880 561.488281 L 147 561.488281 Z M 147 0.0117188 " clip-rule="nonzero"/></clipPath></defs><g clip-path="url(#120f6bdbee)"><path fill="#999999" d="M 737.84375 217.242188 C 684.992188 217.242188 641.988281 174.253906 641.988281 121.417969 C 641.988281 68.578125 684.992188 25.585938 737.84375 25.585938 C 790.695312 25.585938 833.703125 68.578125 833.703125 121.417969 C 833.703125 174.253906 790.695312 217.242188 737.84375 217.242188 Z M 371.308594 403.238281 C 343.28125 403.238281 320.570312 390.761719 320.570312 375.371094 C 320.570312 359.984375 343.28125 347.511719 371.308594 347.511719 C 399.328125 347.511719 422.046875 359.984375 422.046875 375.371094 C 422.046875 390.761719 399.328125 403.238281 371.308594 403.238281 Z M 806.714844 221.277344 C 838.414062 199.359375 859.234375 162.773438 859.234375 121.417969 C 859.234375 54.503906 804.777344 0.0625 737.84375 0.0625 C 670.914062 0.0625 616.457031 54.503906 616.457031 121.417969 C 616.457031 162.210938 636.71875 198.347656 667.6875 220.355469 C 636.292969 227.789062 608.980469 248.171875 593.0625 277.167969 L 548.523438 358.375 L 532.066406 307.175781 C 521.402344 276.148438 492.195312 255.308594 459.390625 255.308594 L 184.769531 255.308594 C 172.445312 255.308594 161.257812 261.058594 154.101562 271.09375 C 146.933594 281.121094 145.121094 293.5625 149.121094 305.1875 L 208.078125 485.679688 L 517.292969 485.679688 C 521.996094 485.679688 525.800781 489.480469 525.800781 494.183594 C 525.800781 498.886719 521.996094 502.695312 517.292969 502.695312 L 207.3125 502.695312 C 207.042969 504.15625 206.882812 505.664062 206.882812 507.210938 L 206.882812 526.25 C 206.882812 540.035156 218.097656 551.246094 231.890625 551.246094 L 708.757812 551.246094 C 722.539062 551.246094 733.753906 540.035156 733.753906 526.25 L 733.753906 507.210938 C 733.753906 495.625 725.824219 485.890625 715.117188 483.066406 L 722.480469 480.839844 C 737.980469 476.1875 750.816406 465.84375 758.628906 451.730469 L 820.472656 340.1875 C 823.894531 334.019531 821.667969 326.25 815.496094 322.835938 C 809.328125 319.417969 801.5625 321.640625 798.148438 327.808594 L 736.296875 439.355469 C 731.726562 447.617188 724.210938 453.675781 715.125 456.394531 L 640.832031 478.804688 C 638.644531 479.464844 636.769531 480.667969 635.300781 482.210938 L 588.335938 482.210938 L 578.882812 452.8125 L 600.851562 446.6875 C 600.914062 446.667969 600.972656 446.652344 601.03125 446.632812 L 698.394531 419.46875 C 701.707031 418.550781 704.507812 416.328125 706.160156 413.3125 L 749.035156 335.089844 C 752.433594 328.910156 750.160156 321.160156 743.976562 317.769531 C 737.800781 314.394531 730.03125 316.640625 726.648438 322.828125 L 686.355469 396.328125 L 624 413.734375 L 668.445312 335.25 C 671.914062 329.121094 669.757812 321.324219 663.621094 317.851562 C 657.503906 314.402344 649.699219 316.535156 646.21875 322.671875 L 589.140625 423.457031 L 571.066406 428.5 L 558.832031 390.4375 C 560.1875 389.394531 561.363281 388.066406 562.234375 386.476562 L 615.457031 289.449219 C 631.246094 260.664062 661.46875 242.773438 694.316406 242.773438 L 778.582031 242.773438 C 820.003906 242.773438 853.707031 276.464844 853.707031 317.882812 L 853.707031 549.117188 C 853.707031 556.160156 859.425781 561.878906 866.472656 561.878906 C 873.523438 561.878906 879.238281 556.160156 879.238281 549.117188 L 879.238281 317.882812 C 879.238281 272.152344 848.5625 233.480469 806.714844 221.277344 " fill-opacity="1" fill-rule="nonzero"/></g></svg>